<svg viewBox="0 0 116 92" xmlns="http://www.w3.org/2000/svg" fill-rule="evenodd" clip-rule="evenodd" stroke-linejoin="round" stroke-miterlimit="1.414">
    <path d="M54 40V7c-10.637-.22-23.187-3.677-32.985 2.228C8.466 16.789 12.017 34.342 25 39.03c8.362 3.019 20.179.97 29 .97m7-33v33c8.731 0 20.77 2.137 29-.995 12.567-4.781 16.544-22.217 3.985-29.638C83.974 3.451 71.845 6.776 61 7z" fill="#139cec" fill-rule="nonzero"/>
    <path d="M48 39c0-6.979 2.451-19.721-1.179-25.852-3.028-5.114-13.688-3.855-17.687-.634-7.933 6.388-5.094 23.281 4.87 25.928C38.411 39.613 43.476 39 48 39m19 0c4.477 0 9.682.708 13.999-.653 9.742-3.07 12.795-19.168 4.787-25.694-4.002-3.262-14.673-4.716-17.758.495C64.487 19.128 67 32.161 67 39z" fill="#fff" fill-rule="nonzero"/>
    <path d="M54 87V47c-11.681 0-26.732-2.676-36.999 3.969C3.946 59.418 5.838 79.154 20 85.471 30.626 90.21 42.831 87 54 87m7-40v40c10.779 0 22.635 3.037 33-1.144 14.641-5.907 17.311-26.271 3.999-34.887C87.732 44.324 72.681 47 61 47z" fill="#139cec" fill-rule="nonzero" stroke="#139cec"/>
    <path d="M48 49c-5.746 0-12.458-.936-18 .804-12.364 3.883-13.555 23.965-3.815 31.342 4.617 3.496 16.012 4.968 19.877-.424C51.105 73.685 48 57.318 48 49m19 0c0 8.288-2.945 23.566 1.179 30.891 3.256 5.784 13.868 5.128 18.806 2.1C98.415 74.979 97.98 53.383 84 49.709 78.616 48.294 72.522 49 67 49z" fill="#fff" fill-rule="nonzero"/>
</svg>
