<?xml version="1.0" encoding="UTF-8" standalone="no"?>
<!DOCTYPE svg PUBLIC "-//W3C//DTD SVG 1.1//EN" "http://www.w3.org/Graphics/SVG/1.1/DTD/svg11.dtd">
<svg width="100%" height="100%" viewBox="0 0 116 92" version="1.1" xmlns="http://www.w3.org/2000/svg" xmlns:xlink="http://www.w3.org/1999/xlink" xml:space="preserve" style="fill-rule:evenodd;clip-rule:evenodd;stroke-linejoin:round;stroke-miterlimit:1.41421;">
    <path d="M54,40L54,7C43.363,6.78 30.813,3.323 21.015,9.228C8.466,16.789 12.017,34.342 25,39.03C33.362,42.049 45.179,40 54,40M61,7L61,40C69.731,40 81.77,42.137 90,39.005C102.567,34.224 106.544,16.788 93.985,9.367C83.974,3.451 71.845,6.776 61,7Z" style="fill:rgb(19,156,236);fill-rule:nonzero;"/>
    <path d="M48,39C48,32.021 50.451,19.279 46.821,13.148C43.793,8.034 33.133,9.293 29.134,12.514C21.201,18.902 24.04,35.795 34.004,38.442C38.411,39.613 43.476,39 48,39M67,39C71.477,39 76.682,39.708 80.999,38.347C90.741,35.277 93.794,19.179 85.786,12.653C81.784,9.391 71.113,7.937 68.028,13.148C64.487,19.128 67,32.161 67,39Z" style="fill:white;fill-rule:nonzero;"/>
    <path d="M54,87L54,47C42.319,47 27.268,44.324 17.001,50.969C3.946,59.418 5.838,79.154 20,85.471C30.626,90.21 42.831,87 54,87M61,47L61,87C71.779,87 83.635,90.037 94,85.856C108.641,79.949 111.311,59.585 97.999,50.969C87.732,44.324 72.681,47 61,47Z" style="fill:rgb(19,156,236);fill-rule:nonzero;stroke:rgb(19,156,236);stroke-width:1px;"/>
    <path d="M48,49C42.254,49 35.542,48.064 30,49.804C17.636,53.687 16.445,73.769 26.185,81.146C30.802,84.642 42.197,86.114 46.062,80.722C51.105,73.685 48,57.318 48,49M67,49C67,57.288 64.055,72.566 68.179,79.891C71.435,85.675 82.047,85.019 86.985,81.991C98.415,74.979 97.98,53.383 84,49.709C78.616,48.294 72.522,49 67,49Z" style="fill:white;fill-rule:nonzero;"/>
</svg>
